# xmcd CD database file
#
# Track frame offsets:
#	150
#	14542
#	29885
#	44695
#	60350
#	73443
#	95538
#	113560
#	132258
#	150296
#	165087
#	180052
#	194892
#	209693
#	224760
#	238313
#	249864
#	262375
#	275075
#	287977
#	299423
#	311517
#
# Disc length: 4355 seconds
#
# Revision: 0
# Processed by: cddbd v1.5.1PL0 Copyright (c) Steve Scherf et al.
# Submitted via: CDex 1.50
#
DISCID=63110116
DTITLE=Lester Young - BD Jazz 2
DYEAR=1900
DGENRE=Jazz
TTITLE0=These Foolish Things
TTITLE1=Blue Lester
TTITLE2=Jump Lester Jump
TTITLE3=(I Don't Stand) A Ghost Of a Chance
TTITLE4=(Back Home Again in) Indiana
TTITLE5=The Man I Love
TTITLE6=I Want To Be Happy
TTITLE7=I Found a New Baby
TTITLE8=Somebody Loves Me
TTITLE9=I never Knew
TTITLE10=Just You, Just Me
TTITLE11=Afternoon Of a Basie-ite
TTITLE12=Sometimes I'm Happy
TTITLE13=She's Funny That Way
TTITLE14=D.B. Blues
TTITLE15=Lester Blows Again
TTITLE16=Jumpin'  at Mesner's
TTITLE17=Jive at Five
TTITLE18=Taxi War Dance
TTITLE19=Clap Hands, Here Comes Charlie
TTITLE20=Tickle Toe
TTITLE21=Jumpin'  at the Woodside
EXTD=
EXTT0=
EXTT1=
EXTT2=
EXTT3=
EXTT4=
EXTT5=
EXTT6=
EXTT7=
EXTT8=
EXTT9=
EXTT10=
EXTT11=
EXTT12=
EXTT13=
EXTT14=
EXTT15=
EXTT16=
EXTT17=
EXTT18=
EXTT19=
EXTT20=
EXTT21=
PLAYORDER=
